<svg width="60" height="28" viewBox="0 0 60 28" fill="none" xmlns="http://www.w3.org/2000/svg">
<g clip-path="url(#clip0_1347_7296)">
<path d="M17.6261 16.1556L12.3599 0H8.76924L0 26.8988H4.1079L10.5647 5.80832L15.6188 22.3162L17.0226 26.8988H18.2331L19.6352 22.3162L17.6261 16.1556Z" fill="#CB945E"/>
<path d="M40.6046 0H37.0168L31.7502 16.1556V16.1577L29.7422 22.3144L31.1439 26.897H32.3544L33.7564 22.3165V22.3144L38.8105 5.80654L45.2673 26.897H49.3745L40.6046 0Z" fill="#CB945E"/>
<path d="M31.7501 16.1577V16.1556L26.4817 0H22.8918L17.6252 16.1556L15.6172 22.3162L17.021 26.8988H18.2315L19.6336 22.3162L24.6876 5.80832L29.7421 22.3144L31.1438 26.897H32.3542L33.7563 22.3165V22.3144L31.7501 16.1577Z" fill="#CB945E"/>
<path d="M35.2518 26.8992H32.3555L33.7572 22.3184L35.2518 26.8992Z" fill="#CB945E"/>
<path d="M17.0214 26.899H14.125L15.6175 22.3164L17.0214 26.899Z" fill="#CB945E"/>
<path d="M26.7935 22.5792H22.6016C22.8563 21.7379 23.0991 20.8608 23.3299 19.9478C23.4505 19.4684 23.5629 18.9962 23.6669 18.5312H25.6278C25.7727 19.0043 25.9162 19.4823 26.0581 19.9652C26.3171 20.8467 26.5622 21.718 26.7935 22.5792Z" fill="#CB945E"/>
<path d="M52.4375 22.2517C52.0603 22.5956 51.8718 23.0805 51.872 23.7063C51.872 24.3212 52.073 24.7997 52.4751 25.1417C52.8772 25.4837 53.4448 25.6542 54.178 25.6533C54.8712 25.6533 56.8359 24.1849 57.0939 23.4778C57.3518 22.7708 57.4809 21.9168 57.4809 20.9192H59.0948C59.0948 22.2394 58.8882 23.3668 58.475 24.3013C58.0618 25.2357 57.4587 25.9485 56.6657 26.4395C55.8726 26.9305 54.9186 27.1759 53.8037 27.1756C53.0495 27.1756 52.4047 27.0397 51.8695 26.768C51.3483 26.5099 50.9208 26.0955 50.6466 25.5827C50.3663 25.064 50.2263 24.4386 50.2266 23.7063C50.2266 22.7193 50.4986 21.929 51.0425 21.3354C51.5865 20.7417 52.3552 20.3978 53.3486 20.3037L54.0471 21.7348C53.3513 21.7356 52.8147 21.9079 52.4375 22.2517ZM53.2364 22.2432C52.863 21.8576 52.5311 21.4338 52.2463 20.9788C51.9807 20.554 51.7709 20.0967 51.6222 19.6183C51.4788 19.1534 51.4059 18.6697 51.4062 18.1832C51.4062 17.1239 51.689 16.3044 52.2548 15.7247C52.8205 15.145 53.6191 14.8552 54.6506 14.8555C55.6768 14.8555 56.4714 15.1342 57.0343 15.6917C57.5972 16.2491 57.8786 17.038 57.8786 18.0583V18.2247H56.1814V18.0583C56.1814 17.565 56.0484 17.1837 55.7823 16.9146C55.5162 16.6454 55.139 16.5109 54.6506 16.5112C54.157 16.5112 53.7757 16.6568 53.5068 16.9479C53.2379 17.2391 53.1034 17.6508 53.1034 18.1832C53.106 18.522 53.1592 18.8585 53.2613 19.1815C53.3736 19.5407 53.53 19.8845 53.7271 20.2051C53.9391 20.552 54.1873 20.8755 54.4675 21.17L60.0019 27.0522H57.847L53.2364 22.2432Z" fill="#CB945E"/>
</g>
<defs>
<clipPath id="clip0_1347_7296">
<rect width="60" height="27.1762" fill="white"/>
</clipPath>
</defs>
</svg>
